{
    "asset" : {
        "generator" : "Khronos glTF Blender I/O v1.0.5",
        "version" : "2.0"
    },
    "scene" : 0,
    "scenes" : [
        {
            "name" : "Scene",
            "nodes" : [
                0,
                1,
                2,
                3,
                4,
                5,
                6,
                7,
                8
            ]
        }
    ],
    "nodes" : [
        {
            "mesh" : 0,
            "name" : "Mesh_0004out",
            "rotation" : [
                0.7071068286895752,
                0,
                0,
                0.7071067094802856
            ]
        },
        {
            "mesh" : 1,
            "name" : "Mesh_0041out",
            "rotation" : [
                0.7071068286895752,
                0,
                0,
                0.7071067094802856
            ]
        },
        {
            "mesh" : 2,
            "name" : "Mesh_0043out",
            "rotation" : [
                0.7071068286895752,
                0,
                0,
                0.7071067094802856
            ]
        },
        {
            "mesh" : 3,
            "name" : "Mesh_0046out",
            "rotation" : [
                0.7071068286895752,
                0,
                0,
                0.7071067094802856
            ]
        },
        {
            "mesh" : 4,
            "name" : "Mesh_0047out",
            "rotation" : [
                0.7071068286895752,
                0,
                0,
                0.7071067094802856
            ]
        },
        {
            "mesh" : 5,
            "name" : "Mesh_0048out",
            "rotation" : [
                0.7071068286895752,
                0,
                0,
                0.7071067094802856
            ]
        },
        {
            "mesh" : 6,
            "name" : "Mesh_0049out",
            "rotation" : [
                0.7071068286895752,
                0,
                0,
                0.7071067094802856
            ]
        },
        {
            "mesh" : 7,
            "name" : "Mesh_0134out",
            "rotation" : [
                0.7071068286895752,
                0,
                0,
                0.7071067094802856
            ]
        },
        {
            "mesh" : 8,
            "name" : "Mesh_0136out",
            "rotation" : [
                0.7071068286895752,
                0,
                0,
                0.7071067094802856
            ]
        }
    ],
    "materials" : [
        {
            "doubleSided" : true,
            "name" : "Tex_0000_0.dds",
            "pbrMetallicRoughness" : {
                "baseColorTexture" : {
                    "index" : 0,
                    "texCoord" : 0
                },
                "metallicFactor" : 0,
                "roughnessFactor" : 0.5
            }
        },
        {
            "doubleSided" : true,
            "name" : "Tex_0123_0.dds",
            "pbrMetallicRoughness" : {
                "baseColorTexture" : {
                    "index" : 1,
                    "texCoord" : 0
                },
                "metallicFactor" : 0,
                "roughnessFactor" : 0.5
            }
        },
        {
            "doubleSided" : true,
            "name" : "Tex_0123_0.dds.001",
            "pbrMetallicRoughness" : {
                "baseColorTexture" : {
                    "index" : 2,
                    "texCoord" : 0
                },
                "metallicFactor" : 0,
                "roughnessFactor" : 0.5
            }
        },
        {
            "doubleSided" : true,
            "name" : "Tex_0123_0.dds.002",
            "normalTexture" : {
                "index" : 3,
                "texCoord" : 0
            },
            "pbrMetallicRoughness" : {
                "baseColorTexture" : {
                    "index" : 4,
                    "texCoord" : 0
                },
                "metallicRoughnessTexture" : {
                    "index" : 5,
                    "texCoord" : 0
                }
            }
        },
        {
            "doubleSided" : true,
            "name" : "Tex_0141_0.dds",
            "normalTexture" : {
                "index" : 6,
                "texCoord" : 0
            },
            "pbrMetallicRoughness" : {
                "baseColorTexture" : {
                    "index" : 7,
                    "texCoord" : 0
                },
                "metallicRoughnessTexture" : {
                    "index" : 8,
                    "texCoord" : 0
                }
            }
        },
        {
            "doubleSided" : true,
            "name" : "Tex_0144_0.dds",
            "normalTexture" : {
                "index" : 9,
                "texCoord" : 0
            },
            "pbrMetallicRoughness" : {
                "baseColorTexture" : {
                    "index" : 10,
                    "texCoord" : 0
                },
                "metallicRoughnessTexture" : {
                    "index" : 11,
                    "texCoord" : 0
                }
            }
        },
        {
            "doubleSided" : true,
            "name" : "Tex_0147_0.dds",
            "pbrMetallicRoughness" : {
                "baseColorTexture" : {
                    "index" : 12,
                    "texCoord" : 0
                },
                "metallicFactor" : 0,
                "roughnessFactor" : 0.5
            }
        },
        {
            "doubleSided" : true,
            "name" : "Tex_0120_0.dds",
            "normalTexture" : {
                "index" : 13,
                "texCoord" : 0
            },
            "pbrMetallicRoughness" : {
                "baseColorTexture" : {
                    "index" : 14,
                    "texCoord" : 0
                },
                "metallicRoughnessTexture" : {
                    "index" : 15,
                    "texCoord" : 0
                }
            }
        },
        {
            "doubleSided" : true,
            "name" : "Tex_0123_0.dds.003",
            "pbrMetallicRoughness" : {
                "baseColorTexture" : {
                    "index" : 16,
                    "texCoord" : 0
                },
                "metallicFactor" : 0,
                "roughnessFactor" : 0.5
            }
        }
    ],
    "meshes" : [
        {
            "name" : "Mesh_0004out",
            "primitives" : [
                {
                    "attributes" : {
                        "POSITION" : 0,
                        "NORMAL" : 1,
                        "TEXCOORD_0" : 2
                    },
                    "indices" : 3,
                    "material" : 0
                }
            ]
        },
        {
            "name" : "Mesh_0041out",
            "primitives" : [
                {
                    "attributes" : {
                        "POSITION" : 4,
                        "NORMAL" : 5,
                        "TEXCOORD_0" : 6
                    },
                    "indices" : 7,
                    "material" : 1
                }
            ]
        },
        {
            "name" : "Mesh_0043out",
            "primitives" : [
                {
                    "attributes" : {
                        "POSITION" : 8,
                        "NORMAL" : 9,
                        "TEXCOORD_0" : 10
                    },
                    "indices" : 11,
                    "material" : 2
                }
            ]
        },
        {
            "name" : "Mesh_0046out",
            "primitives" : [
                {
                    "attributes" : {
                        "POSITION" : 12,
                        "NORMAL" : 13,
                        "TEXCOORD_0" : 14
                    },
                    "indices" : 15,
                    "material" : 3
                }
            ]
        },
        {
            "name" : "Mesh_0047out",
            "primitives" : [
                {
                    "attributes" : {
                        "POSITION" : 16,
                        "NORMAL" : 17,
                        "TEXCOORD_0" : 18
                    },
                    "indices" : 19,
                    "material" : 4
                }
            ]
        },
        {
            "name" : "Mesh_0048out",
            "primitives" : [
                {
                    "attributes" : {
                        "POSITION" : 20,
                        "NORMAL" : 21,
                        "TEXCOORD_0" : 22
                    },
                    "indices" : 23,
                    "material" : 5
                }
            ]
        },
        {
            "name" : "Mesh_0049out",
            "primitives" : [
                {
                    "attributes" : {
                        "POSITION" : 24,
                        "NORMAL" : 25,
                        "TEXCOORD_0" : 26
                    },
                    "indices" : 27,
                    "material" : 6
                }
            ]
        },
        {
            "name" : "Mesh_0134out",
            "primitives" : [
                {
                    "attributes" : {
                        "POSITION" : 28,
                        "NORMAL" : 29,
                        "TEXCOORD_0" : 30
                    },
                    "indices" : 31,
                    "material" : 7
                }
            ]
        },
        {
            "name" : "Mesh_0136out",
            "primitives" : [
                {
                    "attributes" : {
                        "POSITION" : 32,
                        "NORMAL" : 33,
                        "TEXCOORD_0" : 34
                    },
                    "indices" : 35,
                    "material" : 8
                }
            ]
        }
    ],
    "textures" : [
        {
            "source" : 0
        },
        {
            "source" : 1
        },
        {
            "source" : 1
        },
        {
            "source" : 2
        },
        {
            "source" : 1
        },
        {
            "source" : 3
        },
        {
            "source" : 4
        },
        {
            "source" : 5
        },
        {
            "source" : 6
        },
        {
            "source" : 7
        },
        {
            "source" : 8
        },
        {
            "source" : 9
        },
        {
            "source" : 10
        },
        {
            "source" : 11
        },
        {
            "source" : 12
        },
        {
            "source" : 13
        },
        {
            "source" : 1
        }
    ],
    "images" : [
        {
            "mimeType" : "image/png",
            "name" : "Tex_0144_0.dds",
            "uri" : "Tex_0144_0_dds.png"
        },
        {
            "mimeType" : "image/png",
            "name" : "Tex_0123_0",
            "uri" : "Tex_0123_0.png"
        },
        {
            "mimeType" : "image/png",
            "name" : "TankRightNormal",
            "uri" : "TankRightNormal.png"
        },
        {
            "mimeType" : "image/png",
            "name" : "TankRightMRO",
            "uri" : "TankRightMRO.png"
        },
        {
            "mimeType" : "image/png",
            "name" : "TankLeftNormal",
            "uri" : "TankLeftNormal.png"
        },
        {
            "mimeType" : "image/png",
            "name" : "Tex_0141_0",
            "uri" : "Tex_0141_0.png"
        },
        {
            "mimeType" : "image/png",
            "name" : "TankLeftMRO",
            "uri" : "TankLeftMRO.png"
        },
        {
            "mimeType" : "image/png",
            "name" : "TankBaseNormal",
            "uri" : "TankBaseNormal.png"
        },
        {
            "mimeType" : "image/png",
            "name" : "Tex_0144_0",
            "uri" : "Tex_0144_0.png"
        },
        {
            "mimeType" : "image/png",
            "name" : "TankBaseMRO",
            "uri" : "TankBaseMRO.png"
        },
        {
            "mimeType" : "image/png",
            "name" : "Tex_0147_0",
            "uri" : "Tex_0147_0.png"
        },
        {
            "mimeType" : "image/png",
            "name" : "LandscapeNormal",
            "uri" : "LandscapeNormal3.png"
        },
        {
            "mimeType" : "image/png",
            "name" : "Tex_0120_0_255",
            "uri" : "Tex_0120_0_255.png"
        },
        {
            "mimeType" : "image/png",
            "name" : "LandscapeMRO",
            "uri" : "LandscapeMRO.png"
        }
    ],
    "accessors" : [
        {
            "bufferView" : 0,
            "componentType" : 5126,
            "count" : 489,
            "max" : [
                2.300762891769409,
                3.624886989593506,
                0.3182410001754761
            ],
            "min" : [
                1.733773946762085,
                3.1581430435180664,
                -0.16315999627113342
            ],
            "type" : "VEC3"
        },
        {
            "bufferView" : 1,
            "componentType" : 5126,
            "count" : 489,
            "type" : "VEC3"
        },
        {
            "bufferView" : 2,
            "componentType" : 5126,
            "count" : 489,
            "type" : "VEC2"
        },
        {
            "bufferView" : 3,
            "componentType" : 5123,
            "count" : 1308,
            "type" : "SCALAR"
        },
        {
            "bufferView" : 4,
            "componentType" : 5126,
            "count" : 122,
            "max" : [
                1.4812530279159546,
                0.48567700386047363,
                0.3953160047531128
            ],
            "min" : [
                1.0766910314559937,
                0.04345399886369705,
                -0.06078699976205826
            ],
            "type" : "VEC3"
        },
        {
            "bufferView" : 5,
            "componentType" : 5126,
            "count" : 122,
            "type" : "VEC3"
        },
        {
            "bufferView" : 6,
            "componentType" : 5126,
            "count" : 122,
            "type" : "VEC2"
        },
        {
            "bufferView" : 7,
            "componentType" : 5123,
            "count" : 348,
            "type" : "SCALAR"
        },
        {
            "bufferView" : 8,
            "componentType" : 5126,
            "count" : 308,
            "max" : [
                2.6866610050201416,
                2.821099042892456,
                -0.7430930137634277
            ],
            "min" : [
                2.39347505569458,
                2.5493130683898926,
                -1.0370739698410034
            ],
            "type" : "VEC3"
        },
        {
            "bufferView" : 9,
            "componentType" : 5126,
            "count" : 308,
            "type" : "VEC3"
        },
        {
            "bufferView" : 10,
            "componentType" : 5126,
            "count" : 308,
            "type" : "VEC2"
        },
        {
            "bufferView" : 11,
            "componentType" : 5123,
            "count" : 1014,
            "type" : "SCALAR"
        },
        {
            "bufferView" : 12,
            "componentType" : 5126,
            "count" : 8164,
            "max" : [
                6.068445205688477,
                6.513301849365234,
                0.7942230105400085
            ],
            "min" : [
                0.4584519863128662,
                -1.5374130010604858,
                -2.8571829795837402
            ],
            "type" : "VEC3"
        },
        {
            "bufferView" : 13,
            "componentType" : 5126,
            "count" : 8164,
            "type" : "VEC3"
        },
        {
            "bufferView" : 14,
            "componentType" : 5126,
            "count" : 8164,
            "type" : "VEC2"
        },
        {
            "bufferView" : 15,
            "componentType" : 5123,
            "count" : 23346,
            "type" : "SCALAR"
        },
        {
            "bufferView" : 16,
            "componentType" : 5126,
            "count" : 9190,
            "max" : [
                1.2201069593429565,
                7.832787036895752,
                -0.4491199851036072
            ],
            "min" : [
                -3.8692400455474854,
                0.3189060091972351,
                -3.9115090370178223
            ],
            "type" : "VEC3"
        },
        {
            "bufferView" : 17,
            "componentType" : 5126,
            "count" : 9190,
            "type" : "VEC3"
        },
        {
            "bufferView" : 18,
            "componentType" : 5126,
            "count" : 9190,
            "type" : "VEC2"
        },
        {
            "bufferView" : 19,
            "componentType" : 5123,
            "count" : 26202,
            "type" : "SCALAR"
        },
        {
            "bufferView" : 20,
            "componentType" : 5126,
            "count" : 4809,
            "max" : [
                2.65993595123291,
                7.0228118896484375,
                -0.01604899950325489
            ],
            "min" : [
                -2.1852259635925293,
                0.7630329728126526,
                -4.2614240646362305
            ],
            "type" : "VEC3"
        },
        {
            "bufferView" : 21,
            "componentType" : 5126,
            "count" : 4809,
            "type" : "VEC3"
        },
        {
            "bufferView" : 22,
            "componentType" : 5126,
            "count" : 4809,
            "type" : "VEC2"
        },
        {
            "bufferView" : 23,
            "componentType" : 5123,
            "count" : 13488,
            "type" : "SCALAR"
        },
        {
            "bufferView" : 24,
            "componentType" : 5126,
            "count" : 9760,
            "max" : [
                17.692794799804688,
                23.312379837036133,
                1.0042920112609863
            ],
            "min" : [
                -22.22678565979004,
                -14.696269989013672,
                -7.789437770843506
            ],
            "type" : "VEC3"
        },
        {
            "bufferView" : 25,
            "componentType" : 5126,
            "count" : 9760,
            "type" : "VEC3"
        },
        {
            "bufferView" : 26,
            "componentType" : 5126,
            "count" : 9760,
            "type" : "VEC2"
        },
        {
            "bufferView" : 27,
            "componentType" : 5123,
            "count" : 16440,
            "type" : "SCALAR"
        },
        {
            "bufferView" : 28,
            "componentType" : 5126,
            "count" : 4132,
            "max" : [
                23.89234733581543,
                27.503150939941406,
                1.1557179689407349
            ],
            "min" : [
                -23.983627319335938,
                -20.803634643554688,
                -6.6077399253845215
            ],
            "type" : "VEC3"
        },
        {
            "bufferView" : 29,
            "componentType" : 5126,
            "count" : 4132,
            "type" : "VEC3"
        },
        {
            "bufferView" : 30,
            "componentType" : 5126,
            "count" : 4132,
            "type" : "VEC2"
        },
        {
            "bufferView" : 31,
            "componentType" : 5123,
            "count" : 24426,
            "type" : "SCALAR"
        },
        {
            "bufferView" : 32,
            "componentType" : 5126,
            "count" : 53,
            "max" : [
                2.5000290870666504,
                3.569719076156616,
                0.23996099829673767
            ],
            "min" : [
                2.2318289279937744,
                3.2472119331359863,
                -0.20581699907779694
            ],
            "type" : "VEC3"
        },
        {
            "bufferView" : 33,
            "componentType" : 5126,
            "count" : 53,
            "type" : "VEC3"
        },
        {
            "bufferView" : 34,
            "componentType" : 5126,
            "count" : 53,
            "type" : "VEC2"
        },
        {
            "bufferView" : 35,
            "componentType" : 5123,
            "count" : 114,
            "type" : "SCALAR"
        }
    ],
    "bufferViews" : [
        {
            "buffer" : 0,
            "byteLength" : 5868,
            "byteOffset" : 0
        },
        {
            "buffer" : 0,
            "byteLength" : 5868,
            "byteOffset" : 5868
        },
        {
            "buffer" : 0,
            "byteLength" : 3912,
            "byteOffset" : 11736
        },
        {
            "buffer" : 0,
            "byteLength" : 2616,
            "byteOffset" : 15648
        },
        {
            "buffer" : 0,
            "byteLength" : 1464,
            "byteOffset" : 18264
        },
        {
            "buffer" : 0,
            "byteLength" : 1464,
            "byteOffset" : 19728
        },
        {
            "buffer" : 0,
            "byteLength" : 976,
            "byteOffset" : 21192
        },
        {
            "buffer" : 0,
            "byteLength" : 696,
            "byteOffset" : 22168
        },
        {
            "buffer" : 0,
            "byteLength" : 3696,
            "byteOffset" : 22864
        },
        {
            "buffer" : 0,
            "byteLength" : 3696,
            "byteOffset" : 26560
        },
        {
            "buffer" : 0,
            "byteLength" : 2464,
            "byteOffset" : 30256
        },
        {
            "buffer" : 0,
            "byteLength" : 2028,
            "byteOffset" : 32720
        },
        {
            "buffer" : 0,
            "byteLength" : 97968,
            "byteOffset" : 34748
        },
        {
            "buffer" : 0,
            "byteLength" : 97968,
            "byteOffset" : 132716
        },
        {
            "buffer" : 0,
            "byteLength" : 65312,
            "byteOffset" : 230684
        },
        {
            "buffer" : 0,
            "byteLength" : 46692,
            "byteOffset" : 295996
        },
        {
            "buffer" : 0,
            "byteLength" : 110280,
            "byteOffset" : 342688
        },
        {
            "buffer" : 0,
            "byteLength" : 110280,
            "byteOffset" : 452968
        },
        {
            "buffer" : 0,
            "byteLength" : 73520,
            "byteOffset" : 563248
        },
        {
            "buffer" : 0,
            "byteLength" : 52404,
            "byteOffset" : 636768
        },
        {
            "buffer" : 0,
            "byteLength" : 57708,
            "byteOffset" : 689172
        },
        {
            "buffer" : 0,
            "byteLength" : 57708,
            "byteOffset" : 746880
        },
        {
            "buffer" : 0,
            "byteLength" : 38472,
            "byteOffset" : 804588
        },
        {
            "buffer" : 0,
            "byteLength" : 26976,
            "byteOffset" : 843060
        },
        {
            "buffer" : 0,
            "byteLength" : 117120,
            "byteOffset" : 870036
        },
        {
            "buffer" : 0,
            "byteLength" : 117120,
            "byteOffset" : 987156
        },
        {
            "buffer" : 0,
            "byteLength" : 78080,
            "byteOffset" : 1104276
        },
        {
            "buffer" : 0,
            "byteLength" : 32880,
            "byteOffset" : 1182356
        },
        {
            "buffer" : 0,
            "byteLength" : 49584,
            "byteOffset" : 1215236
        },
        {
            "buffer" : 0,
            "byteLength" : 49584,
            "byteOffset" : 1264820
        },
        {
            "buffer" : 0,
            "byteLength" : 33056,
            "byteOffset" : 1314404
        },
        {
            "buffer" : 0,
            "byteLength" : 48852,
            "byteOffset" : 1347460
        },
        {
            "buffer" : 0,
            "byteLength" : 636,
            "byteOffset" : 1396312
        },
        {
            "buffer" : 0,
            "byteLength" : 636,
            "byteOffset" : 1396948
        },
        {
            "buffer" : 0,
            "byteLength" : 424,
            "byteOffset" : 1397584
        },
        {
            "buffer" : 0,
            "byteLength" : 228,
            "byteOffset" : 1398008
        }
    ],
    "buffers" : [
        {
            "byteLength" : 1398236,
            "uri" : "TankScene.bin"
        }
    ]
}
