# Blender v2.82 (sub 7) OBJ File: 'ConeShape.blend'
# www.blender.org
o Cone.002
v 0.000000 0.500000 -1.000000
v 0.353553 0.353553 -1.000000
v 0.500000 0.000000 -1.000000
v 0.353553 -0.353553 -1.000000
v -0.000000 -0.500000 -1.000000
v -0.353553 -0.353553 -1.000000
v -0.500000 0.000000 -1.000000
v -0.353553 0.353553 -1.000000
v 0.000000 -0.000000 0.000000
vt 0.250000 0.490000
vt 0.419706 0.419706
vt 0.250000 0.250000
vt 0.490000 0.250000
vt 0.419706 0.080294
vt 0.250000 0.010000
vt 0.080294 0.080294
vt 0.010000 0.250000
vt 0.080294 0.419706
vt 0.580294 0.080294
vt 0.919706 0.080294
vt 0.919706 0.419706
vt 0.750000 0.490000
vt 0.580294 0.419706
vt 0.510000 0.250000
vt 0.750000 0.010000
vt 0.990000 0.250000
vn -0.3474 -0.8387 -0.4194
vn -0.8387 -0.3474 -0.4194
vn -0.8387 0.3474 -0.4194
vn -0.3474 0.8387 -0.4194
vn 0.3474 0.8387 -0.4194
vn 0.8387 0.3474 -0.4194
vn 0.8387 -0.3474 -0.4194
vn 0.3474 -0.8387 -0.4194
vn 0.0000 0.0000 1.0000
s off
f 1/1/1 2/2/1 9/3/1
f 2/2/2 3/4/2 9/3/2
f 3/4/3 4/5/3 9/3/3
f 4/5/4 5/6/4 9/3/4
f 5/6/5 6/7/5 9/3/5
f 6/7/6 7/8/6 9/3/6
f 7/8/7 8/9/7 9/3/7
f 8/9/8 1/1/8 9/3/8
f 6/10/9 4/11/9 2/12/9
f 2/12/9 1/13/9 8/14/9
f 8/14/9 7/15/9 2/12/9
f 7/15/9 6/10/9 2/12/9
f 6/10/9 5/16/9 4/11/9
f 4/11/9 3/17/9 2/12/9
