# Blender v2.79 (sub 0) OBJ File: 'TestLevel1.blend'
# www.blender.org
mtllib TestLevel1.mtl
o Plane.005
v 3.999893 3.000000 -4.000000
v 3.999893 1.000000 -4.000000
v 4.000107 3.000000 -8.000000
v 4.000106 1.000000 -8.000000
vt 1.995000 -1.720705
vt -1.745000 2.897882
vt -1.745000 -1.720705
vt 1.995000 2.897882
vn 1.0000 0.0000 0.0001
usemtl Glass
s off
f 2/1/1 3/2/1 1/3/1
f 2/1/1 4/4/1 3/2/1
o Plane.004
v 4.000000 3.000000 -8.000000
v 4.000000 1.000000 -8.000000
v 4.000000 3.000000 -4.000000
v 4.000000 1.000000 -4.000000
vt 1.995000 -1.720705
vt -1.745000 2.897882
vt -1.745000 -1.720705
vt 1.995000 2.897882
vn -1.0000 0.0000 0.0000
usemtl Glass
s off
f 6/5/2 7/6/2 5/7/2
f 6/5/2 8/8/2 7/6/2
o Plane.003
v 8.000000 3.000000 -8.000000
v -8.000000 3.000000 -8.000000
v 8.000000 3.000000 8.000000
v -8.000000 3.000000 8.000000
vt -11.197661 12.197661
vt 12.197661 -11.197661
vt -11.197659 -11.197661
vt 12.197661 12.197661
vn 0.0000 -1.0000 0.0000
usemtl Main
s off
f 11/9/3 10/10/3 9/11/3
f 11/9/3 12/12/3 10/10/3
o Cube.001_Cube.003
v 8.000000 0.000000 -2.000000
v 8.000000 0.250000 -2.000000
v 8.000000 0.000000 0.000000
v 8.000000 0.250000 0.000000
v 4.000000 0.000000 -2.000000
v 4.000000 0.250000 -2.000000
v 4.000000 0.000000 0.000000
v 4.000000 0.250000 0.000000
vt 1.449177 -7.685443
vt -0.449177 -2.939557
vt -0.449177 -7.685443
vt 1.449177 -3.997943
vt -0.449177 0.747943
vt -0.449177 -3.997943
vt 1.449177 0.064557
vt -0.449177 4.810443
vt -0.449177 0.064557
vt 1.449177 3.752057
vt -0.449177 8.497943
vt -0.449177 3.752057
vt -1.874219 0.749219
vt -4.875781 3.750781
vt -4.875781 0.749219
vt 5.875781 0.936719
vt 2.874219 3.938281
vt 2.874219 0.936719
vt 1.449177 -2.939557
vt 1.449177 0.747943
vt 1.449177 4.810443
vt 1.449177 8.497943
vt -1.874219 3.750781
vt 5.875781 3.938281
vn 1.0000 0.0000 0.0000
vn 0.0000 0.0000 1.0000
vn -1.0000 0.0000 0.0000
vn 0.0000 0.0000 -1.0000
vn 0.0000 -1.0000 0.0000
vn 0.0000 1.0000 0.0000
usemtl Main_NONE
s off
f 14/13/4 15/14/4 13/15/4
f 16/16/5 19/17/5 15/18/5
f 20/19/6 17/20/6 19/21/6
f 18/22/7 13/23/7 17/24/7
f 19/25/8 13/26/8 15/27/8
f 16/28/9 18/29/9 20/30/9
f 14/13/4 16/31/4 15/14/4
f 16/16/5 20/32/5 19/17/5
f 20/19/6 18/33/6 17/20/6
f 18/22/7 14/34/7 13/23/7
f 19/25/8 17/35/8 13/26/8
f 16/28/9 14/36/9 18/29/9
o Plane.001
v 7.936296 1.000760 -4.000000
v 4.063704 -0.000760 -4.000000
v 7.936296 1.000760 -2.000000
v 4.063704 -0.000760 -2.000000
v 7.927569 0.000798 -2.000000
v 4.063704 -0.000760 -2.000000
vt 3.058750 -0.510938
vt -1.621250 3.089063
vt -1.621250 -0.510938
vt -1.075000 1.070496
vt 1.325000 1.070496
vt -0.919708 -0.088615
vt 3.058750 3.089063
vt 1.325000 1.070496
vn -0.2504 0.9681 0.0000
vn -0.0000 0.0000 1.0000
usemtl Main_NONE
s off
f 22/37/10 23/38/10 21/39/10
f 23/40/11 26/41/11 25/42/11
f 22/37/10 24/43/10 23/38/10
f 23/40/11 24/44/11 26/41/11
o Cube_Cube.002
v 8.000000 0.000000 -8.000000
v 8.000000 1.000000 -8.000000
v 8.000000 0.000000 -4.000000
v 8.000000 1.000000 -4.000000
v 4.000000 0.000000 -8.000000
v 4.000000 1.000000 -8.000000
v 4.000000 0.000000 -4.000000
v 4.000000 1.000000 -4.000000
vt 1.449177 -7.685443
vt -0.449177 -2.939557
vt -0.449177 -7.685443
vt 1.449177 -3.997943
vt -0.449177 0.747943
vt -0.449177 -3.997943
vt 1.449177 0.064557
vt -0.449177 4.810443
vt -0.449177 0.064557
vt 1.449177 3.752057
vt -0.449177 8.497943
vt -0.449177 3.752057
vt -1.874219 0.749219
vt -4.875781 3.750781
vt -4.875781 0.749219
vt 5.875781 0.936719
vt 2.874219 3.938281
vt 2.874219 0.936719
vt 1.449177 -2.939557
vt 1.449177 0.747943
vt 1.449177 4.810443
vt 1.449177 8.497943
vt -1.874219 3.750781
vt 5.875781 3.938281
vn 1.0000 0.0000 0.0000
vn 0.0000 0.0000 1.0000
vn -1.0000 0.0000 0.0000
vn 0.0000 0.0000 -1.0000
vn 0.0000 -1.0000 0.0000
vn 0.0000 1.0000 0.0000
usemtl Main_NONE
s off
f 28/45/12 29/46/12 27/47/12
f 30/48/13 33/49/13 29/50/13
f 34/51/14 31/52/14 33/53/14
f 32/54/15 27/55/15 31/56/15
f 33/57/16 27/58/16 29/59/16
f 30/60/17 32/61/17 34/62/17
f 28/45/12 30/63/12 29/46/12
f 30/48/13 34/64/13 33/49/13
f 34/51/14 32/65/14 31/52/14
f 32/54/15 28/66/15 27/55/15
f 33/57/16 31/67/16 27/58/16
f 30/60/17 28/68/17 32/61/17
o Plane
v 8.000000 0.000000 -8.000000
v -8.000000 0.000000 -8.000000
v 8.000000 0.000000 8.000000
v -8.000000 0.000000 8.000000
vt 12.197661 -11.197661
vt -11.197661 12.197661
vt -11.197659 -11.197661
vt 12.197661 12.197661
vn 0.0000 1.0000 0.0000
usemtl Main
s off
f 36/69/18 37/70/18 35/71/18
f 36/69/18 38/72/18 37/70/18
o Plane.002
v 4.000000 1.000760 -7.936296
v 4.000000 -0.000760 -4.063704
v 2.000000 1.000760 -7.936296
v 2.000000 -0.000760 -4.063704
v 2.000000 0.000798 -7.927569
v 2.000000 -0.000760 -4.063704
vt 3.058750 -0.510938
vt -1.621250 -0.510938
vt -1.621250 3.089063
vt -1.075000 1.070496
vt -0.919708 -0.088615
vt 1.325000 1.070496
vt 3.058750 3.089063
vt 1.325000 1.070496
vn 0.0000 0.9681 0.2504
vn -1.0000 0.0000 0.0000
vn 0.0000 0.0000 1.0000
usemtl Main_NONE
s off
f 40/73/19 39/74/19 41/75/19
f 41/76/20 43/77/20 44/78/20
f 40/73/19 41/75/19 42/79/19
f 41/76/21 44/78/21 42/80/21
o Cube.002_Cube.004
v 8.000000 0.250000 -2.000000
v 8.000000 0.500000 -2.000000
v 8.000000 0.250000 0.000000
v 8.000000 0.500000 0.000000
v 5.000000 0.250000 -2.000000
v 5.000000 0.500000 -2.000000
v 5.000000 0.250000 0.000000
v 5.000000 0.500000 0.000000
vt 1.449177 -7.685443
vt -0.449177 -2.939557
vt -0.449177 -7.685443
vt 1.449177 -3.997943
vt -0.449177 0.747943
vt -0.449177 -3.997943
vt 1.449177 0.064557
vt -0.449177 4.810443
vt -0.449177 0.064557
vt 1.449177 3.752057
vt -0.449177 8.497943
vt -0.449177 3.752057
vt -1.874219 0.749219
vt -4.875781 3.750781
vt -4.875781 0.749219
vt 5.875781 0.936719
vt 2.874219 3.938281
vt 2.874219 0.936719
vt 1.449177 -2.939557
vt 1.449177 0.747943
vt 1.449177 4.810443
vt 1.449177 8.497943
vt -1.874219 3.750781
vt 5.875781 3.938281
vn 1.0000 0.0000 0.0000
vn 0.0000 0.0000 1.0000
vn -1.0000 0.0000 0.0000
vn 0.0000 0.0000 -1.0000
vn 0.0000 -1.0000 0.0000
vn 0.0000 1.0000 0.0000
usemtl Main_NONE
s off
f 46/81/22 47/82/22 45/83/22
f 48/84/23 51/85/23 47/86/23
f 52/87/24 49/88/24 51/89/24
f 50/90/25 45/91/25 49/92/25
f 51/93/26 45/94/26 47/95/26
f 48/96/27 50/97/27 52/98/27
f 46/81/22 48/99/22 47/82/22
f 48/84/23 52/100/23 51/85/23
f 52/87/24 50/101/24 49/88/24
f 50/90/25 46/102/25 45/91/25
f 51/93/26 49/103/26 45/94/26
f 48/96/27 46/104/27 50/97/27
o Cube.003_Cube.005
v 8.000000 0.755000 -2.000000
v 8.000000 1.005000 -2.000000
v 8.000000 0.755000 0.000000
v 8.000000 1.005000 0.000000
v 7.000000 0.755000 -2.000000
v 7.000000 1.005000 -2.000000
v 7.000000 0.755000 0.000000
v 7.000000 1.005000 0.000000
vt 1.449177 -7.685443
vt -0.449177 -2.939557
vt -0.449177 -7.685443
vt 1.449177 -3.997943
vt -0.449177 0.747943
vt -0.449177 -3.997943
vt 1.449177 0.064557
vt -0.449177 4.810443
vt -0.449177 0.064557
vt 1.449177 3.752057
vt -0.449177 8.497943
vt -0.449177 3.752057
vt -1.874219 0.749219
vt -4.875781 3.750781
vt -4.875781 0.749219
vt 5.875781 0.936719
vt 2.874219 3.938281
vt 2.874219 0.936719
vt 1.449177 -2.939557
vt 1.449177 0.747943
vt 1.449177 4.810443
vt 1.449177 8.497943
vt -1.874219 3.750781
vt 5.875781 3.938281
vn 1.0000 0.0000 0.0000
vn 0.0000 0.0000 1.0000
vn -1.0000 0.0000 0.0000
vn 0.0000 0.0000 -1.0000
vn 0.0000 -1.0000 0.0000
vn 0.0000 1.0000 0.0000
usemtl Main_NONE
s off
f 54/105/28 55/106/28 53/107/28
f 56/108/29 59/109/29 55/110/29
f 60/111/30 57/112/30 59/113/30
f 58/114/31 53/115/31 57/116/31
f 59/117/32 53/118/32 55/119/32
f 56/120/33 58/121/33 60/122/33
f 54/105/28 56/123/28 55/106/28
f 56/108/29 60/124/29 59/109/29
f 60/111/30 58/125/30 57/112/30
f 58/114/31 54/126/31 53/115/31
f 59/117/32 57/127/32 53/118/32
f 56/120/33 54/128/33 58/121/33
o Cube.004_Cube.006
v 8.000000 0.505000 -2.000000
v 8.000000 0.755000 -2.000000
v 8.000000 0.505000 0.000000
v 8.000000 0.755000 0.000000
v 6.000000 0.505000 -2.000000
v 6.000000 0.755000 -2.000000
v 6.000000 0.505000 0.000000
v 6.000000 0.755000 0.000000
vt 1.449177 -7.685443
vt -0.449177 -2.939557
vt -0.449177 -7.685443
vt 1.449177 -3.997943
vt -0.449177 0.747943
vt -0.449177 -3.997943
vt 1.449177 0.064557
vt -0.449177 4.810443
vt -0.449177 0.064557
vt 1.449177 3.752057
vt -0.449177 8.497943
vt -0.449177 3.752057
vt -1.874219 0.749219
vt -4.875781 3.750781
vt -4.875781 0.749219
vt 5.875781 0.936719
vt 2.874219 3.938281
vt 2.874219 0.936719
vt 1.449177 -2.939557
vt 1.449177 0.747943
vt 1.449177 4.810443
vt 1.449177 8.497943
vt -1.874219 3.750781
vt 5.875781 3.938281
vn 1.0000 0.0000 0.0000
vn 0.0000 0.0000 1.0000
vn -1.0000 0.0000 0.0000
vn 0.0000 0.0000 -1.0000
vn 0.0000 -1.0000 0.0000
vn 0.0000 1.0000 0.0000
usemtl Main_NONE
s off
f 62/129/34 63/130/34 61/131/34
f 64/132/35 67/133/35 63/134/35
f 68/135/36 65/136/36 67/137/36
f 66/138/37 61/139/37 65/140/37
f 67/141/38 61/142/38 63/143/38
f 64/144/39 66/145/39 68/146/39
f 62/129/34 64/147/34 63/130/34
f 64/132/35 68/148/35 67/133/35
f 68/135/36 66/149/36 65/136/36
f 66/138/37 62/150/37 61/139/37
f 67/141/38 65/151/38 61/142/38
f 64/144/39 62/152/39 66/145/39
o Cube.005_Cube.007
v 8.000000 1.000000 -8.000000
v 8.000000 3.000000 -8.000000
v 8.000000 1.000000 -7.000000
v 8.000000 3.000000 -7.000000
v 7.000000 1.000000 -8.000000
v 7.000000 3.000000 -8.000000
v 7.000000 1.000000 -7.000000
v 7.000000 3.000000 -7.000000
vt 2.436322 -2.021258
vt -1.436322 -0.597492
vt -1.436322 -2.021258
vt 2.436322 -0.915008
vt -1.436322 0.508758
vt -1.436322 -0.915008
vt 2.436322 0.303742
vt -1.436322 1.727508
vt -1.436322 0.303742
vt 2.436322 1.409992
vt -1.436322 2.833758
vt -1.436322 1.409992
vt -1.874219 0.749219
vt -4.875781 3.750781
vt -4.875781 0.749219
vt 6.163203 1.211797
vt 3.461797 3.913203
vt 3.461797 1.211797
vt 2.436322 -0.597492
vt 2.436322 0.508758
vt 2.436322 1.727508
vt 2.436322 2.833758
vt -1.874219 3.750781
vt 6.163203 3.913203
vn 1.0000 0.0000 0.0000
vn 0.0000 0.0000 1.0000
vn -1.0000 0.0000 0.0000
vn 0.0000 0.0000 -1.0000
vn 0.0000 -1.0000 0.0000
vn 0.0000 1.0000 0.0000
usemtl Main_NONE
s off
f 70/153/40 71/154/40 69/155/40
f 72/156/41 75/157/41 71/158/41
f 76/159/42 73/160/42 75/161/42
f 74/162/43 69/163/43 73/164/43
f 75/165/44 69/166/44 71/167/44
f 72/168/45 74/169/45 76/170/45
f 70/153/40 72/171/40 71/154/40
f 72/156/41 76/172/41 75/157/41
f 76/159/42 74/173/42 73/160/42
f 74/162/43 70/174/43 69/163/43
f 75/165/44 73/175/44 69/166/44
f 72/168/45 70/176/45 74/169/45
