# Blender v2.79 (sub 0) OBJ File: ''
# www.blender.org
mtllib Test1.mtl
o Cube_Cube.001
v -0.983040 0.016960 0.983040
v -0.983040 2.966080 0.983040
v -0.983040 0.016960 -0.983040
v -0.983040 2.966080 -0.983040
v 0.983040 0.016960 0.983040
v 0.983040 2.966080 0.983040
v 0.983040 0.016960 -0.983040
v 0.983040 2.966080 -0.983040
v -0.487455 0.650000 1.085951
v -0.487455 1.350000 1.085951
v -0.085951 0.650000 0.512545
v -0.085951 1.350000 0.512545
v 0.085951 0.650000 1.487455
v 0.085951 1.350000 1.487455
v 0.487455 0.650000 0.914049
v 0.487455 1.350000 0.914049
v -1.300000 -0.300000 -0.700000
v -1.300000 0.300000 -0.700000
v -1.300000 -0.300000 -1.300000
v -1.300000 0.300000 -1.300000
v -0.700000 -0.300000 -0.700000
v -0.700000 0.300000 -0.700000
v -0.700000 -0.300000 -1.300000
v -0.700000 0.300000 -1.300000
v -1.000000 0.700000 0.000000
v -0.782918 0.865834 0.157718
v -1.082916 0.865834 0.255195
v -1.268328 0.865835 0.000000
v -1.082916 0.865834 -0.255195
v -0.782918 0.865834 -0.157718
v -0.917084 1.134166 0.255195
v -1.217082 1.134166 0.157718
v -1.217082 1.134166 -0.157718
v -0.917084 1.134166 -0.255195
v -0.731672 1.134164 0.000000
v -1.000000 1.300000 0.000000
v -1.048737 0.744803 0.149999
v -0.872403 0.744804 0.092703
v -0.921139 0.842278 0.242704
v -0.744806 0.842279 0.000000
v -0.872403 0.744804 -0.092703
v -1.157719 0.744804 0.000000
v -1.206457 0.842279 0.149999
v -1.048737 0.744803 -0.149999
v -1.206457 0.842279 -0.149999
v -0.921139 0.842278 -0.242703
v -0.714683 1.000000 0.092704
v -0.714683 1.000000 -0.092704
v -1.000000 1.000000 0.300000
v -0.823664 1.000000 0.242705
v -1.285317 1.000000 0.092704
v -1.176336 1.000000 0.242705
v -1.176336 1.000000 -0.242705
v -1.285317 1.000000 -0.092704
v -0.823664 1.000000 -0.242705
v -1.000000 1.000000 -0.300000
v -0.793543 1.157721 0.149999
v -1.078861 1.157721 0.242704
v -1.255194 1.157721 0.000000
v -1.078861 1.157721 -0.242703
v -0.793543 1.157721 -0.149999
v -0.951263 1.255196 0.149999
v -0.842281 1.255195 0.000000
v -1.127597 1.255196 0.092703
v -1.127597 1.255196 -0.092703
v -0.951263 1.255196 -0.149999
vn -1.0000 0.0000 0.0000
vn 0.0000 0.0000 -1.0000
vn 0.0000 0.0000 1.0000
vn 0.0000 -1.0000 0.0000
vn 0.0000 1.0000 0.0000
vn -0.8192 0.0000 -0.5736
vn 0.5736 0.0000 -0.8192
vn 0.8192 0.0000 0.5736
vn -0.5736 0.0000 0.8192
vn 1.0000 0.0000 0.0000
vn 0.1024 -0.9435 0.3151
vn 0.7002 -0.6617 0.2680
vn -0.2680 -0.9435 0.1947
vn -0.2680 -0.9435 -0.1947
vn 0.1024 -0.9435 -0.3151
vn 0.9050 -0.3304 0.2680
vn 0.0247 -0.3304 0.9435
vn -0.8897 -0.3304 0.3151
vn -0.5746 -0.3304 -0.7488
vn 0.5346 -0.3304 -0.7779
vn 0.8026 -0.1256 0.5831
vn -0.3066 -0.1256 0.9435
vn -0.9921 -0.1256 0.0000
vn -0.3066 -0.1256 -0.9435
vn 0.8026 -0.1256 -0.5831
vn 0.4089 0.6617 0.6284
vn -0.4713 0.6617 0.5831
vn -0.7002 0.6617 -0.2680
vn 0.0385 0.6617 -0.7488
vn 0.7240 0.6617 -0.1947
vn 0.2680 0.9435 -0.1947
vn 0.4911 0.7947 -0.3568
vn 0.4089 0.6617 -0.6284
vn -0.1024 0.9435 -0.3151
vn -0.1876 0.7947 -0.5773
vn -0.4713 0.6617 -0.5831
vn -0.3313 0.9435 0.0000
vn -0.6071 0.7947 0.0000
vn -0.7002 0.6617 0.2680
vn -0.1024 0.9435 0.3151
vn -0.1876 0.7947 0.5773
vn 0.0385 0.6617 0.7488
vn 0.2680 0.9435 0.1947
vn 0.4911 0.7947 0.3568
vn 0.7240 0.6617 0.1947
vn 0.8897 0.3304 -0.3151
vn 0.7947 0.1876 -0.5773
vn 0.5746 0.3304 -0.7488
vn -0.0247 0.3304 -0.9435
vn -0.3035 0.1876 -0.9342
vn -0.5346 0.3304 -0.7779
vn -0.9050 0.3304 -0.2680
vn -0.9822 0.1876 0.0000
vn -0.9050 0.3304 0.2680
vn -0.5346 0.3304 0.7779
vn -0.3035 0.1876 0.9342
vn -0.0247 0.3304 0.9435
vn 0.5746 0.3304 0.7488
vn 0.7947 0.1876 0.5773
vn 0.8897 0.3304 0.3151
vn 0.3066 0.1256 -0.9435
vn 0.3035 -0.1876 -0.9342
vn 0.0247 -0.3304 -0.9435
vn -0.8026 0.1256 -0.5831
vn -0.7947 -0.1876 -0.5773
vn -0.8897 -0.3304 -0.3151
vn -0.8026 0.1256 0.5831
vn -0.7947 -0.1876 0.5773
vn -0.5746 -0.3304 0.7488
vn 0.3066 0.1256 0.9435
vn 0.3035 -0.1876 0.9342
vn 0.5346 -0.3304 0.7779
vn 0.9921 0.1256 0.0000
vn 0.9822 -0.1876 0.0000
vn 0.9050 -0.3304 -0.2680
vn 0.4713 -0.6617 -0.5831
vn 0.1876 -0.7947 -0.5773
vn -0.0385 -0.6617 -0.7488
vn -0.4089 -0.6617 -0.6284
vn -0.4911 -0.7947 -0.3568
vn -0.7240 -0.6617 -0.1947
vn -0.7240 -0.6617 0.1947
vn -0.4911 -0.7947 0.3568
vn -0.4089 -0.6617 0.6284
vn 0.7002 -0.6617 -0.2680
vn 0.6071 -0.7947 0.0000
vn 0.3313 -0.9435 0.0000
vn -0.0385 -0.6617 0.7488
vn 0.1876 -0.7947 0.5773
vn 0.4713 -0.6617 0.5831
usemtl Material
s off
f 2//1 3//1 1//1
f 4//2 7//2 3//2
f 6//3 1//3 5//3
f 7//4 1//4 3//4
f 4//5 6//5 8//5
f 2//1 4//1 3//1
f 4//2 8//2 7//2
f 6//3 2//3 1//3
f 7//4 5//4 1//4
f 4//5 2//5 6//5
usemtl Material.001
f 10//6 11//6 9//6
f 12//7 15//7 11//7
f 16//8 13//8 15//8
f 14//9 9//9 13//9
f 15//4 9//4 11//4
f 12//5 14//5 16//5
f 10//6 12//6 11//6
f 12//7 16//7 15//7
f 16//8 14//8 13//8
f 14//9 10//9 9//9
f 15//4 13//4 9//4
f 12//5 10//5 14//5
usemtl Material.002
f 18//1 19//1 17//1
f 20//2 23//2 19//2
f 24//10 21//10 23//10
f 22//3 17//3 21//3
f 23//4 17//4 19//4
f 20//5 22//5 24//5
f 18//1 20//1 19//1
f 20//2 24//2 23//2
f 24//10 22//10 21//10
f 22//3 18//3 17//3
f 23//4 21//4 17//4
f 20//5 18//5 22//5
usemtl Material.003
f 25//11 38//11 37//11
f 26//12 38//12 40//12
f 25//13 37//13 42//13
f 25//14 42//14 44//14
f 25//15 44//15 41//15
f 26//16 40//16 47//16
f 27//17 39//17 49//17
f 28//18 43//18 51//18
f 29//19 45//19 53//19
f 30//20 46//20 55//20
f 26//21 47//21 50//21
f 27//22 49//22 52//22
f 28//23 51//23 54//23
f 29//24 53//24 56//24
f 30//25 55//25 48//25
f 31//26 57//26 62//26
f 32//27 58//27 64//27
f 33//28 59//28 65//28
f 34//29 60//29 66//29
f 35//30 61//30 63//30
f 63//31 66//31 36//31
f 63//32 61//32 66//32
f 61//33 34//33 66//33
f 66//34 65//34 36//34
f 66//35 60//35 65//35
f 60//36 33//36 65//36
f 65//37 64//37 36//37
f 65//38 59//38 64//38
f 59//39 32//39 64//39
f 64//40 62//40 36//40
f 64//41 58//41 62//41
f 58//42 31//42 62//42
f 62//43 63//43 36//43
f 62//44 57//44 63//44
f 57//45 35//45 63//45
f 48//46 61//46 35//46
f 48//47 55//47 61//47
f 55//48 34//48 61//48
f 56//49 60//49 34//49
f 56//50 53//50 60//50
f 53//51 33//51 60//51
f 54//52 59//52 33//52
f 54//53 51//53 59//53
f 51//54 32//54 59//54
f 52//55 58//55 32//55
f 52//56 49//56 58//56
f 49//57 31//57 58//57
f 50//58 57//58 31//58
f 50//59 47//59 57//59
f 47//60 35//60 57//60
f 55//61 56//61 34//61
f 55//62 46//62 56//62
f 46//63 29//63 56//63
f 53//64 54//64 33//64
f 53//65 45//65 54//65
f 45//66 28//66 54//66
f 51//67 52//67 32//67
f 51//68 43//68 52//68
f 43//69 27//69 52//69
f 49//70 50//70 31//70
f 49//71 39//71 50//71
f 39//72 26//72 50//72
f 47//73 48//73 35//73
f 47//74 40//74 48//74
f 40//75 30//75 48//75
f 41//76 46//76 30//76
f 41//77 44//77 46//77
f 44//78 29//78 46//78
f 44//79 45//79 29//79
f 44//80 42//80 45//80
f 42//81 28//81 45//81
f 42//82 43//82 28//82
f 42//83 37//83 43//83
f 37//84 27//84 43//84
f 40//85 41//85 30//85
f 40//86 38//86 41//86
f 38//87 25//87 41//87
f 37//88 39//88 27//88
f 37//89 38//89 39//89
f 38//90 26//90 39//90
