# Blender v2.79 (sub 0) OBJ File: ''
# www.blender.org
mtllib TestLevel2.mtl
o Plane
v -8.000000 0.000000 8.000000
v 8.000000 0.000000 8.000000
v -8.000000 0.000000 -8.000000
v 8.000000 0.000000 -8.000000
vn 0.0000 1.0000 0.0000
usemtl Material.001
s off
f 2//1 3//1 1//1
f 2//1 4//1 3//1
o Cube
v 3.000000 2.000000 -2.000000
v 3.000000 2.000000 0.000000
v 1.000000 2.000000 -0.000000
v 1.000000 2.000000 -2.000000
v 3.000000 4.000000 -2.000000
v 2.999999 4.000000 0.000001
v 1.000000 4.000000 -0.000000
v 1.000000 4.000000 -2.000000
vn 0.0000 -1.0000 0.0000
vn 0.0000 1.0000 0.0000
vn 1.0000 -0.0000 0.0000
vn -0.0000 -0.0000 1.0000
vn -1.0000 -0.0000 -0.0000
vn 0.0000 0.0000 -1.0000
usemtl Material
s off
f 6//2 8//2 5//2
f 12//3 10//3 9//3
f 9//4 6//4 5//4
f 10//5 7//5 6//5
f 7//6 12//6 8//6
f 5//7 12//7 9//7
f 6//2 7//2 8//2
f 12//3 11//3 10//3
f 9//4 10//4 6//4
f 10//5 11//5 7//5
f 7//6 11//6 12//6
f 5//7 8//7 12//7
